<svg xmlns="http://www.w3.org/2000/svg" width="1200" height="520" viewBox="0 0 1200 520">
  <rect width="1200" height="520" fill="#f7fafc"/>
  <text x="60" y="54" font-family="Arial, sans-serif" font-size="26" font-weight="700" fill="#0b2545">MeatLens system flow</text>
  <text x="60" y="84" font-family="Arial, sans-serif" font-size="16" fill="#53657a">Verified from documentation/ARCHITECTURE.md</text>
  <g font-family="Arial, sans-serif">
    <rect x="60" y="150" width="220" height="150" rx="18" fill="#e6f4f1" stroke="#2c8c7b" stroke-width="2"/>
    <text x="170" y="194" text-anchor="middle" font-size="20" font-weight="700" fill="#0b2545">Client</text>
    <text x="170" y="224" text-anchor="middle" font-size="15" fill="#385268">React / Vite</text>
    <text x="170" y="248" text-anchor="middle" font-size="15" fill="#385268">Capacitor</text>
    <text x="170" y="272" text-anchor="middle" font-size="15" fill="#385268">Local ONNX inference</text>

    <rect x="360" y="150" width="220" height="150" rx="18" fill="#e8eef5" stroke="#2e74b5" stroke-width="2"/>
    <text x="470" y="194" text-anchor="middle" font-size="20" font-weight="700" fill="#0b2545">API</text>
    <text x="470" y="224" text-anchor="middle" font-size="15" fill="#385268">Express app</text>
    <text x="470" y="248" text-anchor="middle" font-size="15" fill="#385268">Auth, CORS, CSRF</text>
    <text x="470" y="272" text-anchor="middle" font-size="15" fill="#385268">Module routers</text>

    <rect x="660" y="150" width="220" height="150" rx="18" fill="#fff4d6" stroke="#b27b00" stroke-width="2"/>
    <text x="770" y="194" text-anchor="middle" font-size="20" font-weight="700" fill="#0b2545">Use cases</text>
    <text x="770" y="224" text-anchor="middle" font-size="15" fill="#385268">Application logic</text>
    <text x="770" y="248" text-anchor="middle" font-size="15" fill="#385268">Domain ports</text>
    <text x="770" y="272" text-anchor="middle" font-size="15" fill="#385268">Infrastructure adapters</text>

    <rect x="960" y="150" width="180" height="150" rx="18" fill="#f4eaf0" stroke="#8f3e65" stroke-width="2"/>
    <text x="1050" y="194" text-anchor="middle" font-size="20" font-weight="700" fill="#0b2545">Services</text>
    <text x="1050" y="224" text-anchor="middle" font-size="15" fill="#385268">Supabase</text>
    <text x="1050" y="248" text-anchor="middle" font-size="15" fill="#385268">Storage</text>
    <text x="1050" y="272" text-anchor="middle" font-size="15" fill="#385268">SMTP</text>

    <g stroke="#0b2545" stroke-width="3" fill="none">
      <path d="M280 225 H360"/><path d="M580 225 H660"/><path d="M880 225 H960"/>
    </g>
    <g fill="#0b2545"><path d="M350 216 l10 9 -10 9z"/><path d="M650 216 l10 9 -10 9z"/><path d="M950 216 l10 9 -10 9z"/></g>

    <rect x="170" y="380" width="860" height="72" rx="18" fill="#0b2545"/>
    <text x="600" y="424" text-anchor="middle" font-size="19" font-weight="700" fill="#ffffff">Authenticated inspection → record → reporting / audit</text>
  </g>
</svg>
